<svg width="76" height="30" viewBox="0 0 76 30" fill="none" xmlns="http://www.w3.org/2000/svg">
<path d="M35.8831 30C34.7124 30 33.9011 29.6885 33.399 29.0487C32.515 27.9199 32.9542 26.1527 33.3416 24.5937C33.9081 22.3194 34.6117 19.4892 38.8247 19.4892C40.3633 19.4892 41.3816 19.8328 41.9355 20.5411C42.5999 21.3891 42.4166 22.5318 42.2208 23.3169L42.1327 23.6731H42.2194L40.6878 29.8282H37.363L37.3672 29.7988C36.8665 29.9651 36.3559 30 35.8817 30H35.8831ZM38.8247 20.8442C35.8258 20.8442 35.2873 22.3935 34.6592 24.9206C34.3781 26.0536 33.9921 27.6056 34.469 28.2133C34.6928 28.4983 35.1684 28.6435 35.8831 28.6435C36.4566 28.6435 36.9042 28.5877 37.2917 28.3502C37.1993 28.3641 37.1014 28.3711 36.9965 28.3711C36.4664 28.3711 36.1699 28.135 36.016 27.9381C35.6132 27.424 35.795 26.6948 35.8817 26.3455L36.7839 22.719C36.893 22.2817 37.1826 21.118 38.4484 21.118C38.9981 21.118 39.2961 21.3513 39.4485 21.5469C39.6667 21.8263 39.7087 22.1588 39.6807 22.4759H41.0081C41.085 21.959 41.0375 21.5972 40.8654 21.3765C40.5927 21.0286 39.8877 20.8456 38.8247 20.8456V20.8442ZM38.9366 28.4717H39.6262L40.4822 25.0268H38.3421L38.2736 25.2992H39.096L38.7366 26.7451C38.6792 26.9742 38.5743 27.3974 38.303 27.7551H39.0401L38.9338 28.4703L38.9366 28.4717ZM37.2021 26.6556L37.198 26.6724C37.1616 26.8205 37.1406 26.9267 37.1294 27.0035C37.2105 26.977 37.2791 26.8973 37.3546 26.6556H37.2007H37.2021ZM37.9449 23.6717H38.019L38.2778 22.631C38.289 22.5877 38.2974 22.5499 38.3044 22.5164C38.2428 22.5751 38.1827 22.7162 38.1015 23.0445L37.9463 23.6717H37.9449Z" fill="white"/>
<path d="M41.3508 24.3492L40.1563 29.1492H38.1491L38.2554 28.434H38.226C37.542 29.2107 36.7196 29.3225 35.8817 29.3225C32.95 29.3225 33.4102 27.1264 33.999 24.7572C34.6257 22.2398 35.2999 20.1667 38.8233 20.1667C41.6823 20.1667 41.9998 21.3877 41.5606 23.152H38.8457L38.9352 22.7944C39.0974 22.1406 39.0107 21.7956 38.447 21.7956C37.7533 21.7956 37.5728 22.3502 37.4399 22.881L36.5378 26.509C36.4021 27.0524 36.3014 27.6936 36.9937 27.6936C37.6861 27.6936 37.9155 27.2368 38.0792 26.583L38.2302 25.9781H37.4064L37.812 24.3492H41.3508Z" fill="#005EB7"/>
<path d="M49.1781 29.8268H45.2337L45.0309 29.539C44.8504 29.282 44.8029 28.9327 44.891 28.3725L44.5287 29.8282H40.243L42.7719 19.6624H47.6339C48.9012 19.6624 49.7586 19.9711 50.2551 20.604C50.6874 21.1558 50.7909 21.8976 50.5629 22.8098C50.3069 23.8393 49.8201 24.4806 49.2676 24.8745C49.353 24.9863 49.4229 25.1092 49.4774 25.2405C49.7124 25.8133 49.5712 26.5048 49.4075 27.1641L49.2271 27.892C49.1641 28.142 49.1306 28.3404 49.1152 28.4731L49.4774 28.6254L49.1781 29.8254V29.8268ZM46.2506 28.4717H47.7528C47.7682 28.2258 47.8199 27.9227 47.9095 27.5665L48.0899 26.8386C48.1556 26.576 48.3081 25.9655 48.2214 25.7532C48.1598 25.6009 47.9193 25.4892 47.6087 25.4696L46.7933 25.4165L47.1178 24.1509L47.5794 24.0964C48.4704 23.9902 49.0005 23.4775 49.2481 22.4829C49.3697 21.9953 49.3488 21.6447 49.1879 21.438C48.9753 21.1669 48.4242 21.0161 47.6353 21.0161H43.8335L41.9788 28.4703H43.4685L44.3315 25.003H45.3959C45.6015 25.003 46.1457 25.003 46.48 25.4291C46.8017 25.8384 46.7177 26.3693 46.6282 26.7325C46.5779 26.9336 46.5373 27.139 46.4939 27.3569C46.4492 27.579 46.4044 27.8095 46.3471 28.04C46.3037 28.2147 46.2729 28.3558 46.2534 28.4703L46.2506 28.4717ZM45.6841 24.732H44.3986L45.2169 21.4393H46.0799C46.4814 21.4393 47.0548 21.491 47.4031 21.9353C47.6493 22.251 47.7108 22.6701 47.5822 23.1814C47.3374 24.1662 46.645 24.732 45.6841 24.732ZM46.2771 22.8028L46.2464 22.9257C46.2534 22.9034 46.2604 22.8796 46.2659 22.8531C46.2701 22.8349 46.2743 22.8168 46.2771 22.8014V22.8028Z" fill="white"/>
<path d="M43.302 20.3399H47.6339C49.6271 20.3399 50.2705 21.1795 49.9041 22.6477C49.5544 24.0545 48.6997 24.6468 47.6577 24.7697L47.6521 24.7949C48.22 24.8326 48.6788 25.0785 48.8494 25.4976C49.0117 25.8929 48.8788 26.4852 48.7487 27.0035L48.5669 27.7313C48.4438 28.2244 48.3976 28.6449 48.4396 28.7679C48.4815 28.8908 48.5613 28.9774 48.6788 29.0263L48.648 29.1492H45.5862C45.4477 28.9523 45.5778 28.3097 45.6855 27.878C45.7932 27.4463 45.8603 27.0021 45.968 26.5704C46.1555 25.8175 45.9009 25.682 45.3945 25.682H44.8602L43.9972 29.1492H41.1088L43.3006 20.3385L43.302 20.3399ZM45.6841 24.0531C46.161 24.0531 46.7121 23.8687 46.9234 23.0165C47.1052 22.2887 46.7289 22.1155 46.0785 22.1155H45.7456L45.2631 24.0531H45.6841Z" fill="#005EB7"/>
<path d="M52.8078 30C51.1601 30 50.1293 29.6633 49.5628 28.9397C48.7501 27.9017 49.1138 26.4363 49.5754 24.5811C50.2551 21.8473 50.8426 19.4878 55.0836 19.4878C56.7131 19.4878 57.7384 19.8272 58.3105 20.5579C59.1357 21.6112 58.7553 23.1381 58.3147 24.9066C57.6069 27.7523 57.0474 29.9986 52.8064 29.9986L52.8078 30ZM50.2342 24.7432L50.893 24.9066C50.5349 26.3441 50.2272 27.586 50.6314 28.1043C50.9111 28.4619 51.6441 28.6435 52.8064 28.6435C55.9872 28.6435 56.3033 27.3695 56.997 24.5797C57.3509 23.1562 57.6572 21.9255 57.2404 21.3932C56.9551 21.0286 56.2291 20.8442 55.0836 20.8442C51.9029 20.8442 51.5658 22.2021 50.8916 24.9066L50.2328 24.7432H50.2342ZM53.2121 28.3711C53.061 28.3711 52.6022 28.3711 52.2959 27.9814C51.9029 27.4799 51.998 26.8051 52.5505 24.5811C53.1239 22.2747 53.4121 21.118 54.6793 21.118C54.8304 21.118 55.2906 21.118 55.5955 21.5078C55.9886 22.0093 55.8948 22.6827 55.3409 24.908C54.7675 27.2144 54.4793 28.3725 53.2121 28.3725V28.3711ZM54.3702 23.0836C54.18 23.6577 53.9772 24.4722 53.8695 24.908C53.7883 25.2321 53.6303 25.8692 53.524 26.4042C53.7142 25.83 53.917 25.0156 54.0247 24.5811C54.1059 24.2556 54.2639 23.6186 54.3716 23.0836H54.3702Z" fill="white"/>
<path d="M55.085 20.1667C58.7958 20.1667 58.3356 22.0177 57.6572 24.7446C56.9579 27.5581 56.5187 29.3225 52.8078 29.3225C49.097 29.3225 49.5362 27.5581 50.2356 24.7446C50.9139 22.0177 51.3741 20.1667 55.0864 20.1667H55.085ZM54.6793 21.7956C54.0583 21.7956 53.8513 22.1658 53.2093 24.7446C52.5672 27.3234 52.591 27.6936 53.2121 27.6936C53.8331 27.6936 54.0401 27.3234 54.6821 24.7446C55.3242 22.1658 55.3004 21.7956 54.6793 21.7956Z" fill="#005EB7"/>
<path d="M60.8366 30C59.1917 30 58.2111 29.6843 57.6558 28.976C56.9928 28.1295 57.1775 26.9406 57.4111 26.0005L58.9874 19.6624H67.4903L65.8328 26.3274C65.209 28.8335 63.6214 30 60.8366 30ZM60.0491 21.0175L58.7287 26.3274C58.4979 27.2563 58.4965 27.8487 58.7245 28.1406C58.986 28.4745 59.6966 28.6449 60.8352 28.6449C62.9822 28.6449 64.0481 27.8794 64.5152 26.0005L65.7545 21.0175H64.2649L62.827 26.7953C62.6899 27.3458 62.4353 28.3711 61.2394 28.3711C60.8142 28.3711 60.4925 28.2356 60.2841 27.9674C59.9512 27.5413 60.0561 26.97 60.182 26.4685L61.5387 21.0175H60.0491Z" fill="white"/>
<path d="M63.7347 20.3399H66.6231L65.174 26.1639C64.6495 28.2733 63.3921 29.3225 60.8352 29.3225C58.0195 29.3225 57.5258 28.3474 58.0685 26.1639L59.5176 20.3399H62.4059L60.8408 26.6333C60.6533 27.3863 60.6925 27.695 61.2408 27.695C61.7891 27.695 61.9821 27.3863 62.1696 26.6333L63.7347 20.3399Z" fill="#005EB7"/>
<path d="M64.5894 29.8268L67.1183 19.661H71.4753C72.9412 19.661 73.9189 20.0005 74.4658 20.6976C74.947 21.3122 75.0547 22.1672 74.7889 23.2414C74.2728 25.3173 72.5454 26.5076 70.0528 26.5076H69.7031L68.8765 29.8268H64.5894ZM66.3252 28.4717H67.8149L68.6415 25.1525H70.0528C71.3592 25.1525 73.0126 24.7641 73.4727 22.9159C73.6336 22.2678 73.6084 21.804 73.3986 21.5343C73.1342 21.1963 72.4698 21.0175 71.4781 21.0175H68.1813L66.3266 28.4717H66.3252ZM69.9297 24.732H68.745L69.5633 21.4393H70.4123C70.9676 21.4393 71.3774 21.6042 71.632 21.9297C72.0167 22.42 71.8628 23.0389 71.8124 23.2428C71.4432 24.732 70.3438 24.732 69.9297 24.732Z" fill="white"/>
<path d="M67.6484 20.3399H71.4753C73.6839 20.3399 74.6113 21.1418 74.1301 23.0794C73.642 25.0407 72.0013 25.8314 70.0514 25.8314H69.1702L68.345 29.1506H65.4566L67.6484 20.3399ZM69.9297 24.0531C70.4641 24.0531 70.9326 23.9665 71.1536 23.078C71.3047 22.4731 71.148 22.1155 70.4109 22.1155H70.0934L69.6108 24.0531H69.9297Z" fill="#005EB7"/>
<path d="M5.04384 17.3434L6.07051 10.8768C6.16422 10.2873 6.06491 10.1169 6.03134 10.0792C6.00197 10.0442 5.93763 10.0275 5.84112 10.0275H5.83832L4.67597 17.3434H0.517532L3.14575 0.771129H7.24545C8.63859 0.771129 9.84849 0.838184 10.5521 1.6596C11.064 2.25891 11.2137 3.17672 11.0108 4.46612L10.787 5.87427C10.5744 7.22235 10.0821 8.12759 9.29739 8.60955C9.43027 8.70594 9.54776 8.8177 9.64847 8.94482C10.0849 9.49662 10.208 10.3236 10.0247 11.4747L9.09457 17.3434H5.04384ZM6.36145 6.73062C6.62581 6.64959 6.77547 6.42747 6.83702 6.04191L7.04123 4.74552C7.0776 4.51502 7.06081 4.3376 6.99228 4.25797C6.94332 4.2007 6.8524 4.17555 6.76708 4.16438L6.36145 6.72922V6.73062Z" fill="#1E1E1C"/>
<path d="M7.24545 1.21257C9.40789 1.21257 11.0528 1.36484 10.573 4.39628L10.3492 5.80303C10.0779 7.51851 9.37572 8.46286 7.93083 8.57183L7.92383 8.61513C9.40789 8.7255 9.86668 9.6475 9.58693 11.4049L8.71552 16.9006H5.56277L6.50831 10.9453C6.6272 10.1993 6.54048 9.58463 5.84251 9.58463C5.67746 9.58463 5.58515 9.60419 5.45087 9.6475L4.29971 16.9006H1.03646L3.52341 1.21257H7.24545ZM5.83832 7.20978H6.09149C6.55027 7.20978 7.13075 7.0142 7.27482 6.11176L7.47903 4.81537C7.6231 3.91292 7.10417 3.71595 6.64399 3.71595H6.39082L5.83832 7.20838M7.24545 0.329686H2.7681L0 17.7863H9.47223L9.58973 17.0403L10.4611 11.5446C10.6654 10.2664 10.5129 9.32619 9.99536 8.67241C9.98976 8.66543 9.98417 8.65844 9.97857 8.65146C10.0765 8.56205 10.1702 8.46426 10.2583 8.35949C10.7423 7.78394 11.057 6.99325 11.2234 5.94272L11.4472 4.53597C11.6724 3.10966 11.4892 2.0759 10.8878 1.37322C10.0625 0.407916 8.74909 0.329686 7.24545 0.329686Z" fill="white"/>
<path d="M10.8388 17.3434L13.467 0.771129H20.0621L19.4186 4.81816H17.0967L16.7792 6.81304H18.9585L18.3388 10.7274H16.1596L15.7526 13.2936H18.2605L17.6185 17.3434H10.8388Z" fill="#1E1E1C"/>
<path d="M19.5431 1.21257L19.041 4.37532H16.7177L16.2603 7.25448H18.4395L17.9598 10.2845H15.7805L15.2336 13.735H17.7416L17.2408 16.9006H11.3563L13.8447 1.21257H19.5431ZM20.5796 0.329686H13.0894L10.3199 17.7863H17.9961L18.7766 12.8522H16.2687L16.5358 11.1702H18.7151L19.4746 6.3716H17.2968L17.473 5.261H19.7963L20.5796 0.329686Z" fill="white"/>
<path d="M19.1249 17.3434L21.7545 0.771129H26.548C27.611 0.771129 28.4181 1.08265 28.944 1.69872C29.5469 2.40279 29.7399 3.46729 29.5189 4.86147L29.2098 6.79488C28.7748 9.55111 27.4879 10.9481 25.3856 10.9481H24.2974L23.2819 17.342H19.1235L19.1249 17.3434ZM24.9255 7.42771C25.1758 7.42771 25.3591 7.3872 25.4444 6.85355L25.7829 4.72317C25.8332 4.40605 25.7759 4.32782 25.7745 4.32782C25.7675 4.31944 25.7115 4.2901 25.5633 4.2901H25.3521L24.8555 7.42771H24.9255Z" fill="#1E1E1C"/>
<path d="M26.548 1.21257C28.4936 1.21257 29.4685 2.3539 29.0825 4.79162L28.7748 6.72503C28.4181 8.98673 27.4795 10.5052 25.387 10.5052H23.9212L22.9057 16.8992H19.6424L22.1322 1.21118H26.548M24.338 7.87055H24.9269C25.5129 7.87055 25.7843 7.54086 25.8822 6.9234L26.2207 4.79302C26.3186 4.17835 26.1507 3.84866 25.5647 3.84866H24.9758L24.338 7.87055ZM26.548 0.329686H21.3755L18.6046 17.7863H23.6596L24.6751 11.3909H25.3856C26.6557 11.3909 27.6754 10.9313 28.4167 10.0233C29.0279 9.27451 29.4308 8.24075 29.6476 6.86333L29.9553 4.93132C30.1973 3.40303 29.9707 2.21839 29.2797 1.41094C28.6657 0.692899 27.7467 0.328289 26.548 0.328289V0.329686Z" fill="white"/>
<path d="M33.5794 17.6703C32.1961 17.6703 31.168 17.2903 30.526 16.5402C29.7875 15.6768 29.5693 14.3637 29.8616 12.5239L31.7261 0.771129H35.995L34.0158 13.2559C33.9347 13.77 33.9669 13.9586 33.9865 14.0186C33.9949 14.0186 34.0046 14.0186 34.0186 14.0186C34.097 14.0186 34.2816 14.0186 34.4257 13.1162L36.3825 0.771129H40.6514L38.7659 12.6622C38.2302 16.0317 36.535 17.6703 33.5794 17.6703Z" fill="#1E1E1C"/>
<path d="M40.1339 1.21257L38.3281 12.5923C37.9099 15.2312 36.693 17.2275 33.5794 17.2275C30.4658 17.2275 29.8812 15.2298 30.2994 12.5923L32.1052 1.21257H35.4775L33.5794 13.186C33.4326 14.108 33.5598 14.4601 34.0186 14.4601C34.4774 14.4601 34.7152 14.108 34.8621 13.186L36.7601 1.21257H40.1339ZM41.169 0.329686H31.3484L29.4238 12.4554C29.1119 14.4293 29.3622 15.8598 30.1889 16.8279C30.919 17.6815 32.059 18.1132 33.578 18.1132C36.742 18.1132 38.6345 16.3027 39.2009 12.732L41.169 0.329686Z" fill="white"/>
<path d="M39.7674 17.3434L42.397 0.771129H47.5402C48.6704 0.771129 49.4159 1.02538 49.8831 1.57299C50.367 2.14016 50.5111 2.99371 50.3223 4.18254L50.0481 5.91898C49.8523 7.14831 49.3823 7.91804 48.5417 8.31479C48.6746 8.41676 48.7935 8.53271 48.9012 8.66263C49.4117 9.28708 49.5879 10.2063 49.4103 11.3211L49.062 13.5199C48.6494 16.1281 47.3122 17.3434 44.8518 17.3434H39.7674ZM44.4896 13.7965C44.628 13.7476 44.7791 13.6079 44.842 13.2056L45.2533 10.6142C45.2924 10.3669 45.2631 10.2286 45.2253 10.1853C45.2029 10.1602 45.147 10.142 45.07 10.1378L44.4896 13.7979V13.7965ZM45.5932 6.84517C45.7834 6.75856 45.9023 6.52107 45.9386 6.28498L46.203 4.6142C46.2366 4.40047 46.1974 4.26496 46.1499 4.20908C46.1387 4.19651 46.1093 4.16158 46.0156 4.15879L45.5918 6.84377L45.5932 6.84517Z" fill="#1E1E1C"/>
<path d="M47.5402 1.21257C49.318 1.21257 50.2412 1.87055 49.8845 4.11269L49.6103 5.84913C49.3236 7.64983 48.4228 8.13178 47.0353 8.19744L46.9919 8.24214C48.4648 8.3078 49.2718 9.36252 48.9711 11.2512L48.6228 13.4501C48.227 15.9534 46.9737 16.9006 44.849 16.9006H40.2836L42.7733 1.21257H47.5388M45.07 7.32154H45.4337C45.9107 7.32154 46.2855 6.9234 46.375 6.35483L46.6394 4.68545C46.7289 4.11548 46.48 3.71874 46.003 3.71874H45.6379L45.0686 7.32293M43.9678 14.2645H44.2965C44.8099 14.2645 45.1721 13.9572 45.2798 13.274L45.6911 10.6827C45.7988 10.0009 45.5358 9.6936 45.0225 9.6936H44.6938L43.9692 14.2645M47.5402 0.329686H42.018L39.2471 17.7863H44.849C47.5304 17.7863 49.0508 16.413 49.497 13.5898L49.8453 11.3909C50.0929 9.8305 49.6593 8.90012 49.2481 8.39302C49.8201 7.94459 50.2887 7.20559 50.4831 5.98882L50.7573 4.25099C50.9671 2.92666 50.7909 1.95716 50.2174 1.28661C49.4844 0.428871 48.3375 0.329686 47.5388 0.329686H47.5402Z" fill="white"/>
<path d="M50.0873 17.3434L52.7169 0.771129H56.9859L54.9787 13.4277H57.2166L56.5942 17.3434H50.0873Z" fill="#1E1E1C"/>
<path d="M56.4669 1.21257L54.4597 13.8692H56.6977L56.2165 16.902H50.6062L53.0946 1.21397H56.4669M57.5034 0.329686H52.3379L49.5684 17.7863H56.9719L57.7342 12.9849H55.4962L57.5034 0.328289V0.329686Z" fill="white"/>
<path d="M57.9692 17.3434L60.5988 0.771129H64.8677L62.2381 17.3434H57.9692Z" fill="#1E1E1C"/>
<path d="M64.3488 1.21257L61.8604 16.9006H58.4881L60.9764 1.21257H64.3488ZM65.3853 0.329686H60.2197L57.4502 17.7863H62.6144L65.3839 0.329686H65.3853Z" fill="white"/>
<path d="M68.4093 17.6703C67.033 17.6703 66.0105 17.2917 65.3741 16.5471C64.3782 15.3821 64.5292 13.5688 64.7292 12.3073L65.7797 5.67171C66.3238 2.25052 68.1562 0.442841 71.0781 0.442841C72.3076 0.442841 73.2503 0.814435 73.877 1.54924C74.6155 2.41257 74.8547 3.69779 74.5903 5.36857L74.1791 7.96275H69.9074L70.4515 4.53038C70.4766 4.36694 70.5228 4.08056 70.5004 3.96321C70.4892 3.96321 70.4739 3.96042 70.4529 3.96042C70.4291 3.97579 70.2906 4.13784 70.2165 4.62119L68.787 13.6317C68.745 13.8957 68.7534 14.0577 68.7702 14.1416C68.8961 14.101 68.9646 13.9125 69.0695 13.2531L69.636 9.6908H73.9063L73.414 12.7949C72.937 15.8026 71.0208 17.6703 68.4107 17.6703H68.4093Z" fill="#1E1E1C"/>
<path d="M71.0781 0.884284C73.5511 0.884284 74.5917 2.53132 74.1539 5.29872L73.8028 7.51991H70.4277L70.8907 4.59884C70.9732 4.06938 71.0613 3.51898 70.4557 3.51898C70.0738 3.51898 69.8668 4.00233 69.7815 4.55413L68.352 13.5632C68.2653 14.1094 68.3184 14.5942 68.7003 14.5942C69.3059 14.5942 69.3996 14.0019 69.5087 13.3187L70.0151 10.1336H73.3902L72.979 12.7278C72.5398 15.4952 70.8137 17.2303 68.4121 17.2303C65.0202 17.2303 64.7754 14.8582 65.1684 12.3772L66.2189 5.74156C66.6133 3.25914 67.8135 0.885681 71.0795 0.885681M71.0781 0C68.8681 0 66.079 0.972293 65.3433 5.60047L64.2928 12.2375C64.0788 13.5856 63.9222 15.5288 65.0384 16.8335C65.7643 17.6815 66.8987 18.1118 68.4107 18.1118C69.8234 18.1118 71.0837 17.6033 72.0544 16.6421C72.9846 15.7201 73.607 14.4126 73.8518 12.8633L74.4253 9.24796H69.9311L70.0654 8.40419H74.5596L75.0281 5.43702C75.3135 3.63213 75.0407 2.22678 74.2141 1.26147C73.7217 0.685914 72.779 0 71.0781 0Z" fill="white"/>
</svg>
